<svg width="236" height="99" viewBox="0 0 236 99" fill="none" xmlns="http://www.w3.org/2000/svg">
<g clip-path="url(#clip0_1_2)">
<path fill-rule="evenodd" clip-rule="evenodd" d="M184 19C181.791 19 180 20.7909 180 23V33C180 35.2091 181.791 37 184 37H232C234.209 37 236 35.2091 236 33V23C236 20.7909 234.209 19 232 19H184ZM184 40C181.791 40 180 41.7909 180 44V54C180 56.2091 181.791 58 184 58H232C234.209 58 236 56.2091 236 54V44C236 41.7909 234.209 40 232 40H184ZM180 65C180 62.7909 181.791 61 184 61H232C234.209 61 236 62.7909 236 65V75C236 77.2091 234.209 79 232 79H184C181.791 79 180 77.2091 180 75V65ZM192 28C192 28.8284 191.328 29.5 190.5 29.5C189.672 29.5 189 28.8284 189 28C189 27.1716 189.672 26.5 190.5 26.5C191.328 26.5 192 27.1716 192 28ZM193 28C193 29.3807 191.881 30.5 190.5 30.5C189.119 30.5 188 29.3807 188 28C188 26.6193 189.119 25.5 190.5 25.5C191.881 25.5 193 26.6193 193 28ZM192 49C192 49.8284 191.328 50.5 190.5 50.5C189.672 50.5 189 49.8284 189 49C189 48.1716 189.672 47.5 190.5 47.5C191.328 47.5 192 48.1716 192 49ZM193 49C193 50.3807 191.881 51.5 190.5 51.5C189.119 51.5 188 50.3807 188 49C188 47.6193 189.119 46.5 190.5 46.5C191.881 46.5 193 47.6193 193 49ZM190.5 71.5C191.328 71.5 192 70.8284 192 70C192 69.1716 191.328 68.5 190.5 68.5C189.672 68.5 189 69.1716 189 70C189 70.8284 189.672 71.5 190.5 71.5ZM190.5 72.5C191.881 72.5 193 71.3807 193 70C193 68.6193 191.881 67.5 190.5 67.5C189.119 67.5 188 68.6193 188 70C188 71.3807 189.119 72.5 190.5 72.5Z" fill="#B6B6B6"/>
<path fill-rule="evenodd" clip-rule="evenodd" d="M10 0C4.47715 0 0 4.47715 0 10V89C0 94.5228 4.47715 99 10 99H48C53.5229 99 58 94.5228 58 89V10C58 4.47715 53.5229 0 48 0H10ZM16 9C10.4772 9 6 13.4771 6 19V75C6 80.5228 10.4772 85 16 85H43C48.5228 85 53 80.5228 53 75V19C53 13.4771 48.5229 9 43 9H16ZM34 92C34 94.7614 31.7614 97 29 97C26.2386 97 24 94.7614 24 92C24 89.2386 26.2386 87 29 87C31.7614 87 34 89.2386 34 92ZM18 3C17.4477 3 17 3.44772 17 4C17 4.55228 17.4477 5 18 5H40C40.5523 5 41 4.55228 41 4C41 3.44772 40.5523 3 40 3H18Z" fill="#B6B6B6"/>
<circle cx="79" cy="51" r="2" fill="#69C6FF"/>
<circle cx="87" cy="51" r="2" fill="#69C6FF"/>
<circle cx="95" cy="51" r="2" fill="#69C6FF"/>
<circle cx="103" cy="51" r="2" fill="#69C6FF"/>
<circle cx="111" cy="51" r="2" fill="#69C6FF"/>
<circle cx="119" cy="51" r="2" fill="#69C6FF"/>
<circle cx="127" cy="51" r="2" fill="#69C6FF"/>
<circle cx="135" cy="51" r="2" fill="#69C6FF"/>
<circle cx="143" cy="51" r="2" fill="#69C6FF"/>
<circle cx="151" cy="51" r="2" fill="#69C6FF"/>
<circle cx="159" cy="51" r="2" fill="#69C6FF"/>
<path d="M83.504 44V39.62H84.152V40.7L84.146 41.33H84.302L84.146 41.48C84.146 41.216 84.224 41.01 84.38 40.862C84.536 40.714 84.752 40.64 85.028 40.64C85.356 40.64 85.618 40.746 85.814 40.958C86.01 41.166 86.108 41.448 86.108 41.804V44H85.46V41.876C85.46 41.66 85.402 41.492 85.286 41.372C85.17 41.252 85.012 41.192 84.812 41.192C84.608 41.192 84.446 41.256 84.326 41.384C84.21 41.508 84.152 41.686 84.152 41.918V44H83.504ZM88.7577 44C88.4577 44 88.2237 43.918 88.0557 43.754C87.8877 43.59 87.8037 43.362 87.8037 43.07V41.288H86.8917V40.7H87.8037V39.77H88.4517V40.7H89.7417V41.288H88.4517V43.07C88.4517 43.298 88.5617 43.412 88.7817 43.412H89.6817V44H88.7577ZM92.3553 44C92.0553 44 91.8213 43.918 91.6533 43.754C91.4853 43.59 91.4013 43.362 91.4013 43.07V41.288H90.4893V40.7H91.4013V39.77H92.0493V40.7H93.3393V41.288H92.0493V43.07C92.0493 43.298 92.1593 43.412 92.3793 43.412H93.2793V44H92.3553ZM94.297 45.08V40.7H94.939V41.33H95.077L94.939 41.48C94.939 41.22 95.019 41.016 95.179 40.868C95.343 40.716 95.561 40.64 95.833 40.64C96.165 40.64 96.429 40.752 96.625 40.976C96.825 41.196 96.925 41.498 96.925 41.882V42.812C96.925 43.068 96.879 43.29 96.787 43.478C96.699 43.662 96.573 43.806 96.409 43.91C96.249 44.01 96.057 44.06 95.833 44.06C95.565 44.06 95.349 43.986 95.185 43.838C95.021 43.686 94.939 43.48 94.939 43.22L95.077 43.37H94.927L94.945 44.138V45.08H94.297ZM95.611 43.496C95.823 43.496 95.987 43.436 96.103 43.316C96.223 43.192 96.283 43.014 96.283 42.782V41.918C96.283 41.686 96.223 41.51 96.103 41.39C95.987 41.266 95.823 41.204 95.611 41.204C95.407 41.204 95.245 41.268 95.125 41.396C95.005 41.52 94.945 41.694 94.945 41.918V42.782C94.945 43.006 95.005 43.182 95.125 43.31C95.245 43.434 95.407 43.496 95.611 43.496ZM99.0766 44.054C98.8406 44.054 98.6326 44.016 98.4526 43.94C98.2766 43.864 98.1366 43.76 98.0326 43.628C97.9326 43.492 97.8746 43.332 97.8586 43.148H98.5066C98.5226 43.256 98.5806 43.344 98.6806 43.412C98.7806 43.476 98.9126 43.508 99.0766 43.508H99.3346C99.5306 43.508 99.6786 43.468 99.7786 43.388C99.8786 43.308 99.9286 43.202 99.9286 43.07C99.9286 42.942 99.8826 42.842 99.7906 42.77C99.7026 42.694 99.5706 42.644 99.3946 42.62L98.9686 42.554C98.6166 42.498 98.3566 42.398 98.1886 42.254C98.0246 42.106 97.9426 41.888 97.9426 41.6C97.9426 41.296 98.0406 41.062 98.2366 40.898C98.4366 40.73 98.7306 40.646 99.1186 40.646H99.3466C99.6906 40.646 99.9646 40.726 100.169 40.886C100.377 41.042 100.495 41.252 100.523 41.516H99.8746C99.8586 41.42 99.8046 41.342 99.7126 41.282C99.6246 41.222 99.5026 41.192 99.3466 41.192H99.1186C98.9306 41.192 98.7926 41.228 98.7046 41.3C98.6206 41.368 98.5786 41.47 98.5786 41.606C98.5786 41.726 98.6166 41.816 98.6926 41.876C98.7686 41.936 98.8866 41.978 99.0466 42.002L99.4846 42.074C99.8566 42.126 100.129 42.23 100.301 42.386C100.477 42.538 100.565 42.76 100.565 43.052C100.565 43.368 100.461 43.614 100.253 43.79C100.049 43.966 99.7426 44.054 99.3346 44.054H99.0766ZM102.788 41.594C102.632 41.594 102.504 41.55 102.404 41.462C102.308 41.374 102.26 41.258 102.26 41.114C102.26 40.97 102.308 40.856 102.404 40.772C102.504 40.684 102.632 40.64 102.788 40.64C102.948 40.64 103.076 40.684 103.172 40.772C103.268 40.856 103.316 40.97 103.316 41.114C103.316 41.258 103.268 41.374 103.172 41.462C103.076 41.55 102.948 41.594 102.788 41.594ZM102.788 44.06C102.632 44.06 102.504 44.016 102.404 43.928C102.308 43.84 102.26 43.726 102.26 43.586C102.26 43.438 102.308 43.322 102.404 43.238C102.504 43.15 102.632 43.106 102.788 43.106C102.948 43.106 103.076 43.15 103.172 43.238C103.268 43.322 103.316 43.438 103.316 43.586C103.316 43.726 103.268 43.84 103.172 43.928C103.076 44.016 102.948 44.06 102.788 44.06ZM108.142 44.66L110.254 39.02H110.926L108.814 44.66H108.142ZM105.442 44.66L107.554 39.02H108.226L106.114 44.66H105.442ZM113.581 44.06C113.313 44.06 113.077 44.008 112.873 43.904C112.673 43.796 112.519 43.646 112.411 43.454C112.303 43.262 112.249 43.038 112.249 42.782V41.918C112.249 41.658 112.303 41.434 112.411 41.246C112.519 41.054 112.673 40.906 112.873 40.802C113.077 40.694 113.313 40.64 113.581 40.64C113.853 40.64 114.089 40.694 114.289 40.802C114.489 40.906 114.643 41.054 114.751 41.246C114.859 41.434 114.913 41.658 114.913 41.918V42.506H112.873V42.782C112.873 43.026 112.933 43.212 113.053 43.34C113.177 43.468 113.355 43.532 113.587 43.532C113.775 43.532 113.927 43.5 114.043 43.436C114.159 43.368 114.231 43.27 114.259 43.142H114.901C114.853 43.422 114.709 43.646 114.469 43.814C114.229 43.978 113.933 44.06 113.581 44.06ZM114.289 42.116V41.912C114.289 41.672 114.229 41.486 114.109 41.354C113.989 41.222 113.813 41.156 113.581 41.156C113.353 41.156 113.177 41.222 113.053 41.354C112.933 41.486 112.873 41.674 112.873 41.918V42.068L114.337 42.062L114.289 42.116ZM115.637 44L116.795 42.296L115.709 40.7H116.453L117.035 41.612C117.063 41.66 117.091 41.712 117.119 41.768C117.147 41.82 117.169 41.864 117.185 41.9C117.197 41.864 117.217 41.82 117.245 41.768C117.273 41.712 117.301 41.66 117.329 41.612L117.911 40.7H118.655L117.569 42.302L118.721 44H117.977L117.335 43.01C117.307 42.962 117.279 42.908 117.251 42.848C117.223 42.788 117.201 42.74 117.185 42.704C117.169 42.74 117.145 42.788 117.113 42.848C117.085 42.908 117.055 42.962 117.023 43.01L116.375 44H115.637ZM120.447 44.06C120.103 44.06 119.831 43.972 119.631 43.796C119.435 43.616 119.337 43.372 119.337 43.064C119.337 42.752 119.441 42.508 119.649 42.332C119.861 42.152 120.151 42.062 120.519 42.062H121.437V41.756C121.437 41.576 121.381 41.436 121.269 41.336C121.157 41.236 120.999 41.186 120.795 41.186C120.615 41.186 120.465 41.226 120.345 41.306C120.225 41.382 120.155 41.484 120.135 41.612H119.499C119.535 41.316 119.671 41.08 119.907 40.904C120.147 40.728 120.449 40.64 120.813 40.64C121.205 40.64 121.515 40.74 121.743 40.94C121.971 41.136 122.085 41.404 122.085 41.744V44H121.455V43.394H121.347L121.455 43.274C121.455 43.514 121.363 43.706 121.179 43.85C120.995 43.99 120.751 44.06 120.447 44.06ZM120.639 43.562C120.871 43.562 121.061 43.504 121.209 43.388C121.361 43.268 121.437 43.116 121.437 42.932V42.5H120.531C120.363 42.5 120.229 42.546 120.129 42.638C120.033 42.73 119.985 42.856 119.985 43.016C119.985 43.184 120.043 43.318 120.159 43.418C120.275 43.514 120.435 43.562 120.639 43.562ZM122.928 44V40.7H123.468V41.12H123.588L123.498 41.246C123.498 41.062 123.548 40.916 123.648 40.808C123.748 40.696 123.882 40.64 124.05 40.64C124.23 40.64 124.368 40.71 124.464 40.85C124.564 40.99 124.614 41.182 124.614 41.426L124.47 41.12H124.698L124.602 41.246C124.602 41.062 124.652 40.916 124.752 40.808C124.856 40.696 124.994 40.64 125.166 40.64C125.37 40.64 125.53 40.718 125.646 40.874C125.762 41.026 125.82 41.23 125.82 41.486V44H125.244V41.504C125.244 41.38 125.216 41.284 125.16 41.216C125.108 41.148 125.032 41.114 124.932 41.114C124.832 41.114 124.754 41.148 124.698 41.216C124.646 41.28 124.62 41.374 124.62 41.498V44H124.134V41.504C124.134 41.376 124.106 41.28 124.05 41.216C123.994 41.148 123.914 41.114 123.81 41.114C123.71 41.114 123.634 41.148 123.582 41.216C123.534 41.28 123.51 41.374 123.51 41.498V44H122.928ZM126.676 45.08V40.7H127.318V41.33H127.456L127.318 41.48C127.318 41.22 127.398 41.016 127.558 40.868C127.722 40.716 127.94 40.64 128.212 40.64C128.544 40.64 128.808 40.752 129.004 40.976C129.204 41.196 129.304 41.498 129.304 41.882V42.812C129.304 43.068 129.258 43.29 129.166 43.478C129.078 43.662 128.952 43.806 128.788 43.91C128.628 44.01 128.436 44.06 128.212 44.06C127.944 44.06 127.728 43.986 127.564 43.838C127.4 43.686 127.318 43.48 127.318 43.22L127.456 43.37H127.306L127.324 44.138V45.08H126.676ZM127.99 43.496C128.202 43.496 128.366 43.436 128.482 43.316C128.602 43.192 128.662 43.014 128.662 42.782V41.918C128.662 41.686 128.602 41.51 128.482 41.39C128.366 41.266 128.202 41.204 127.99 41.204C127.786 41.204 127.624 41.268 127.504 41.396C127.384 41.52 127.324 41.694 127.324 41.918V42.782C127.324 43.006 127.384 43.182 127.504 43.31C127.624 43.434 127.786 43.496 127.99 43.496ZM132.044 44C131.84 44 131.662 43.96 131.51 43.88C131.358 43.796 131.238 43.678 131.15 43.526C131.066 43.374 131.024 43.198 131.024 42.998V40.208H129.944V39.62H131.672V42.998C131.672 43.126 131.708 43.228 131.78 43.304C131.852 43.376 131.95 43.412 132.074 43.412H133.094V44H132.044ZM135.167 44.06C134.899 44.06 134.663 44.008 134.459 43.904C134.259 43.796 134.105 43.646 133.997 43.454C133.889 43.262 133.835 43.038 133.835 42.782V41.918C133.835 41.658 133.889 41.434 133.997 41.246C134.105 41.054 134.259 40.906 134.459 40.802C134.663 40.694 134.899 40.64 135.167 40.64C135.439 40.64 135.675 40.694 135.875 40.802C136.075 40.906 136.229 41.054 136.337 41.246C136.445 41.434 136.499 41.658 136.499 41.918V42.506H134.459V42.782C134.459 43.026 134.519 43.212 134.639 43.34C134.763 43.468 134.941 43.532 135.173 43.532C135.361 43.532 135.513 43.5 135.629 43.436C135.745 43.368 135.817 43.27 135.845 43.142H136.487C136.439 43.422 136.295 43.646 136.055 43.814C135.815 43.978 135.519 44.06 135.167 44.06ZM135.875 42.116V41.912C135.875 41.672 135.815 41.486 135.695 41.354C135.575 41.222 135.399 41.156 135.167 41.156C134.939 41.156 134.763 41.222 134.639 41.354C134.519 41.486 134.459 41.674 134.459 41.918V42.068L135.923 42.062L135.875 42.116ZM138.765 44.06C138.605 44.06 138.477 44.014 138.381 43.922C138.285 43.826 138.237 43.698 138.237 43.538C138.237 43.374 138.285 43.244 138.381 43.148C138.477 43.048 138.605 42.998 138.765 42.998C138.929 42.998 139.057 43.048 139.149 43.148C139.245 43.244 139.293 43.374 139.293 43.538C139.293 43.698 139.245 43.826 139.149 43.922C139.057 44.014 138.929 44.06 138.765 44.06ZM142.387 44.06C142.115 44.06 141.875 44.01 141.667 43.91C141.463 43.806 141.305 43.658 141.193 43.466C141.085 43.27 141.031 43.042 141.031 42.782V41.918C141.031 41.654 141.085 41.426 141.193 41.234C141.305 41.042 141.463 40.896 141.667 40.796C141.875 40.692 142.115 40.64 142.387 40.64C142.783 40.64 143.101 40.744 143.341 40.952C143.581 41.16 143.707 41.444 143.719 41.804H143.071C143.059 41.616 142.993 41.47 142.873 41.366C142.753 41.262 142.591 41.21 142.387 41.21C142.167 41.21 141.993 41.272 141.865 41.396C141.737 41.516 141.673 41.688 141.673 41.912V42.782C141.673 43.006 141.737 43.18 141.865 43.304C141.993 43.428 142.167 43.49 142.387 43.49C142.591 43.49 142.753 43.438 142.873 43.334C142.993 43.23 143.059 43.084 143.071 42.896H143.719C143.707 43.256 143.581 43.54 143.341 43.748C143.101 43.956 142.783 44.06 142.387 44.06ZM145.96 44.054C145.688 44.054 145.452 44.002 145.252 43.898C145.052 43.794 144.898 43.646 144.79 43.454C144.682 43.262 144.628 43.036 144.628 42.776V41.924C144.628 41.66 144.682 41.434 144.79 41.246C144.898 41.054 145.052 40.906 145.252 40.802C145.452 40.698 145.688 40.646 145.96 40.646C146.232 40.646 146.468 40.698 146.668 40.802C146.868 40.906 147.022 41.054 147.13 41.246C147.238 41.434 147.292 41.66 147.292 41.924V42.776C147.292 43.036 147.238 43.262 147.13 43.454C147.022 43.646 146.868 43.794 146.668 43.898C146.468 44.002 146.232 44.054 145.96 44.054ZM145.96 43.484C146.18 43.484 146.35 43.424 146.47 43.304C146.59 43.18 146.65 43.004 146.65 42.776V41.924C146.65 41.692 146.59 41.516 146.47 41.396C146.35 41.276 146.18 41.216 145.96 41.216C145.744 41.216 145.574 41.276 145.45 41.396C145.33 41.516 145.27 41.692 145.27 41.924V42.776C145.27 43.004 145.33 43.18 145.45 43.304C145.574 43.424 145.744 43.484 145.96 43.484ZM148.112 44V40.7H148.652V41.12H148.772L148.682 41.246C148.682 41.062 148.732 40.916 148.832 40.808C148.932 40.696 149.066 40.64 149.234 40.64C149.414 40.64 149.552 40.71 149.648 40.85C149.748 40.99 149.798 41.182 149.798 41.426L149.654 41.12H149.882L149.786 41.246C149.786 41.062 149.836 40.916 149.936 40.808C150.04 40.696 150.178 40.64 150.35 40.64C150.554 40.64 150.714 40.718 150.83 40.874C150.946 41.026 151.004 41.23 151.004 41.486V44H150.428V41.504C150.428 41.38 150.4 41.284 150.344 41.216C150.292 41.148 150.216 41.114 150.116 41.114C150.016 41.114 149.938 41.148 149.882 41.216C149.83 41.28 149.804 41.374 149.804 41.498V44H149.318V41.504C149.318 41.376 149.29 41.28 149.234 41.216C149.178 41.148 149.098 41.114 148.994 41.114C148.894 41.114 148.818 41.148 148.766 41.216C148.718 41.28 148.694 41.374 148.694 41.498V44H148.112ZM151.763 44.66L153.875 39.02H154.547L152.435 44.66H151.763Z" fill="#69C6FF"/>
</g>
<defs>
<clipPath id="clip0_1_2">
<rect width="236" height="99" fill="white"/>
</clipPath>
</defs>
</svg>
