<svg width="256" height="256" viewBox="0 0 256 256" fill="none" xmlns="http://www.w3.org/2000/svg">
<path fill-rule="evenodd" clip-rule="evenodd" d="M45 104C39.4772 104 35 108.477 35 114V225.431C35 230.954 39.4772 235.431 45 235.431H102C107.523 235.431 112 230.954 112 225.431V114C112 108.477 107.523 104 102 104H45ZM52.9655 115.948C47.4427 115.948 42.9655 120.425 42.9655 125.948V206.845C42.9655 212.368 47.4427 216.845 52.9655 216.845H95.3621C100.885 216.845 105.362 212.368 105.362 206.845V125.948C105.362 120.425 100.885 115.948 95.3621 115.948H52.9655ZM80.1379 226.138C80.1379 229.804 77.166 232.776 73.5 232.776C69.834 232.776 66.8621 229.804 66.8621 226.138C66.8621 222.472 69.834 219.5 73.5 219.5C77.166 219.5 80.1379 222.472 80.1379 226.138ZM58.569 107.983C58.0167 107.983 57.569 108.43 57.569 108.983V109.638C57.569 110.19 58.0167 110.638 58.569 110.638H88.431C88.9833 110.638 89.431 110.19 89.431 109.638V108.983C89.431 108.43 88.9833 107.983 88.431 107.983H58.569Z" fill="#B4E8FF"/>
<circle cx="132" cy="115" r="6" fill="#FF5656"/>
<circle cx="157.5" cy="100.5" r="8.5" fill="#FF5656"/>
<ellipse cx="192.5" cy="45.5" rx="54.5" ry="32.5" fill="#FF5656"/>
<path d="M168.633 46.2266L163.617 44.0469C162.336 43.5 162.016 42.6719 162.656 41.5625L162.797 41.3281C163.438 40.2344 164.312 40.1016 165.422 40.9297L169.805 44.1875L169.172 38.75C169.016 37.375 169.57 36.6875 170.836 36.6875H171.117C172.383 36.6875 172.938 37.375 172.781 38.75L172.148 44.1875L176.531 40.9297C177.641 40.1016 178.516 40.2344 179.156 41.3281L179.297 41.5625C179.938 42.6719 179.617 43.5 178.336 44.0469L173.32 46.2266L178.336 48.3828C179.617 48.9297 179.938 49.7578 179.297 50.8672L179.156 51.1016C178.516 52.1953 177.641 52.3359 176.531 51.5234L172.148 48.2422L172.781 53.6797C172.938 55.0547 172.383 55.7422 171.117 55.7422H170.836C169.57 55.7422 169.016 55.0547 169.172 53.6797L169.805 48.2422L165.422 51.5234C164.312 52.3359 163.438 52.1953 162.797 51.1016L162.656 50.8672C162.016 49.7578 162.336 48.9297 163.617 48.3828L168.633 46.2266ZM190.664 46.2266L185.648 44.0469C184.367 43.5 184.047 42.6719 184.688 41.5625L184.828 41.3281C185.469 40.2344 186.344 40.1016 187.453 40.9297L191.836 44.1875L191.203 38.75C191.047 37.375 191.602 36.6875 192.867 36.6875H193.148C194.414 36.6875 194.969 37.375 194.812 38.75L194.18 44.1875L198.562 40.9297C199.672 40.1016 200.547 40.2344 201.188 41.3281L201.328 41.5625C201.969 42.6719 201.648 43.5 200.367 44.0469L195.352 46.2266L200.367 48.3828C201.648 48.9297 201.969 49.7578 201.328 50.8672L201.188 51.1016C200.547 52.1953 199.672 52.3359 198.562 51.5234L194.18 48.2422L194.812 53.6797C194.969 55.0547 194.414 55.7422 193.148 55.7422H192.867C191.602 55.7422 191.047 55.0547 191.203 53.6797L191.836 48.2422L187.453 51.5234C186.344 52.3359 185.469 52.1953 184.828 51.1016L184.688 50.8672C184.047 49.7578 184.367 48.9297 185.648 48.3828L190.664 46.2266ZM212.695 46.2266L207.68 44.0469C206.398 43.5 206.078 42.6719 206.719 41.5625L206.859 41.3281C207.5 40.2344 208.375 40.1016 209.484 40.9297L213.867 44.1875L213.234 38.75C213.078 37.375 213.633 36.6875 214.898 36.6875H215.18C216.445 36.6875 217 37.375 216.844 38.75L216.211 44.1875L220.594 40.9297C221.703 40.1016 222.578 40.2344 223.219 41.3281L223.359 41.5625C224 42.6719 223.68 43.5 222.398 44.0469L217.383 46.2266L222.398 48.3828C223.68 48.9297 224 49.7578 223.359 50.8672L223.219 51.1016C222.578 52.1953 221.703 52.3359 220.594 51.5234L216.211 48.2422L216.844 53.6797C217 55.0547 216.445 55.7422 215.18 55.7422H214.898C213.633 55.7422 213.078 55.0547 213.234 53.6797L213.867 48.2422L209.484 51.5234C208.375 52.3359 207.5 52.1953 206.859 51.1016L206.719 50.8672C206.078 49.7578 206.398 48.9297 207.68 48.3828L212.695 46.2266Z" fill="white"/>
</svg>
