<svg width="256" height="256" viewBox="0 0 256 256" fill="none" xmlns="http://www.w3.org/2000/svg">
<rect width="256" height="256" rx="87" fill="#5BA6C9"/>
<path d="M204.102 80.7273H189.528C189.528 75.2301 188.122 70.6705 185.31 67.0483C182.54 63.3835 178.151 61.5511 172.142 61.5511C168.307 61.5511 165.153 62.2543 162.682 63.6605C160.253 65.0668 158.442 66.8352 157.249 68.9659C156.098 71.0966 155.523 73.2273 155.523 75.358C155.523 77.9148 156.247 80.3224 157.696 82.581C159.145 84.7969 160.935 86.7997 163.065 88.5895C165.196 90.3367 167.284 91.8068 169.33 93L194.131 107.574C195.793 108.511 197.689 109.768 199.82 111.345C201.95 112.922 203.996 114.861 205.956 117.162C207.916 119.42 209.536 122.084 210.814 125.152C212.135 128.22 212.795 131.736 212.795 135.699C212.795 138.852 211.964 142.006 210.303 145.159C208.683 148.313 206.51 151.104 203.783 153.533C201.098 155.962 198.136 157.687 194.898 158.71V158.966C197.966 161.651 200.224 164.761 201.673 168.298C203.122 171.793 203.847 175.585 203.847 179.676C203.847 185.983 202.313 191.161 199.244 195.209C196.176 199.3 192.17 202.325 187.227 204.286C182.284 206.288 177 207.29 171.375 207.29C164.642 207.29 158.655 205.947 153.413 203.263C148.172 200.621 144.06 196.828 141.077 191.885C138.094 186.984 136.602 181.125 136.602 174.307H151.432C151.432 180.571 153.307 185.365 157.057 188.689C160.849 192.055 165.622 193.739 171.375 193.739C176.105 193.739 180.26 192.567 183.839 190.223C187.462 187.922 189.273 184.406 189.273 179.676C189.273 176.438 188.548 173.732 187.099 171.558C185.651 169.385 183.861 167.553 181.73 166.061C179.599 164.57 177.511 163.227 175.466 162.034L150.665 147.716C149.003 146.736 147.107 145.457 144.976 143.881C142.845 142.304 140.8 140.365 138.839 138.064C136.879 135.72 135.239 133.014 133.918 129.946C132.639 126.835 132 123.298 132 119.335C132 116.267 132.767 113.135 134.301 109.939C135.835 106.743 137.945 103.888 140.629 101.374C143.314 98.8594 146.403 97.0909 149.898 96.0682V95.5568C147.213 92.8722 145.04 89.8679 143.378 86.544C141.759 83.1776 140.949 79.4489 140.949 75.358C140.949 70.0739 142.291 65.3864 144.976 61.2955C147.661 57.1619 151.347 53.9233 156.034 51.5795C160.722 49.1932 166.091 48 172.142 48C178.705 48 184.372 49.4062 189.145 52.2188C193.918 54.9886 197.604 58.8452 200.203 63.7884C202.803 68.6889 204.102 74.3352 204.102 80.7273ZM198.733 135.699C198.733 133.227 198.158 130.969 197.007 128.923C195.857 126.835 194.365 124.982 192.533 123.362C190.7 121.7 188.761 120.273 186.716 119.08L161.659 104.506C159.784 103.398 157.611 103.376 155.139 104.442C152.71 105.507 150.58 107.361 148.747 110.003C146.957 112.645 146.063 115.756 146.063 119.335C146.063 123.426 147.298 126.793 149.77 129.435C152.284 132.034 155.139 134.293 158.335 136.21L182.114 150.017C183.903 151.04 186.098 151.04 188.697 150.017C191.339 148.994 193.662 147.226 195.665 144.712C197.71 142.197 198.733 139.193 198.733 135.699Z" fill="white"/>
<path d="M172 128C172 211 160.21 226 116 226C69 226 47 170.84 47 125C47 79.1604 66.5 30 116 30C160.21 30 172 45 172 128Z" fill="white"/>
<path fill-rule="evenodd" clip-rule="evenodd" d="M171.791 110.399L161.659 104.506C159.784 103.398 157.611 103.376 155.139 104.442C152.71 105.507 150.58 107.361 148.747 110.003C146.957 112.645 146.062 115.756 146.062 119.335C146.062 123.426 147.298 126.793 149.77 129.435C152.284 132.034 155.139 134.293 158.335 136.21L171.829 144.045C171.702 149.577 171.501 154.748 171.217 159.581L150.665 147.716C149.003 146.736 147.107 145.457 144.976 143.881C142.845 142.304 140.8 140.365 138.839 138.064C136.879 135.72 135.239 133.014 133.918 129.946C132.639 126.835 132 123.298 132 119.335C132 116.267 132.767 113.135 134.301 109.939C135.835 106.743 137.945 103.888 140.629 101.374C143.314 98.8594 146.403 97.0909 149.898 96.0682V95.5568C147.213 92.8722 145.04 89.8679 143.378 86.544C141.759 83.1776 140.949 79.4489 140.949 75.358C140.949 70.0739 142.291 65.3864 144.976 61.2955C147.661 57.1619 151.347 53.9233 156.034 51.5795C157.754 50.704 159.566 49.989 161.469 49.4347C163.424 53.0348 165.062 57.2563 166.417 62.1931C165.035 62.5409 163.79 63.03 162.682 63.6605C160.253 65.0668 158.442 66.8352 157.249 68.9659C156.098 71.0966 155.523 73.2273 155.523 75.358C155.523 77.9148 156.247 80.3224 157.696 82.581C159.145 84.7969 160.935 86.7997 163.065 88.5895C165.196 90.3367 167.284 91.8068 169.33 93L171.068 94.0214C171.402 99.0867 171.639 104.537 171.791 110.399ZM161.644 206.24C163.588 202.588 165.212 198.307 166.554 193.302C162.9 192.603 159.734 191.065 157.057 188.689C153.307 185.365 151.432 180.571 151.432 174.307H136.602C136.602 181.125 138.094 186.984 141.077 191.885C144.06 196.828 148.172 200.621 153.413 203.263C155.978 204.577 158.722 205.569 161.644 206.24Z" fill="#5BA6C9"/>
<path d="M94.44 156.08H115.56V170H85.08C79.8 165.04 75.8 158.76 73.08 151.16C70.36 143.56 69 135.76 69 127.76C69 119.68 70.52 111.92 73.56 104.48C76.6 97.04 81.12 90.88 87.12 86H115.56V100.4H94.44C92.28 102.88 90.4 106.88 88.8 112.4C87.28 117.92 86.52 123.2 86.52 128.24C86.52 133.28 87.28 138.56 88.8 144.08C90.4 149.6 92.28 153.6 94.44 156.08Z" fill="#5BA6C9"/>
</svg>
