<svg width="256" height="256" viewBox="0 0 256 256" fill="none" xmlns="http://www.w3.org/2000/svg">
<path d="M181.279 161.279C186.851 155.708 191.27 149.093 194.286 141.814C197.301 134.534 198.853 126.732 198.853 118.853C198.853 110.974 197.301 103.171 194.286 95.8918C191.27 88.6123 186.851 81.9979 181.279 76.4264C175.708 70.8549 169.093 66.4353 161.814 63.42C154.534 60.4048 146.732 58.8528 138.853 58.8528C130.973 58.8528 123.171 60.4048 115.892 63.42C108.612 66.4353 101.998 70.8549 96.4264 76.4264L138.853 118.853L181.279 161.279Z" fill="#FFC72E"/>
<path fill-rule="evenodd" clip-rule="evenodd" d="M75.0251 89.4455C74.2441 90.2266 72.9777 90.2266 72.1967 89.4455C71.4156 88.6645 71.4156 87.3981 72.1967 86.6171C72.9777 85.836 74.2441 85.836 75.0251 86.6171C75.8062 87.3981 75.8062 88.6645 75.0251 89.4455ZM80.682 95.1024C79.9009 95.8834 78.6346 95.8834 77.8535 95.1024C77.0725 94.3213 77.0725 93.055 77.8535 92.2739C78.6346 91.4929 79.9009 91.4929 80.682 92.2739C81.463 93.055 81.463 94.3213 80.682 95.1024ZM83.5104 100.759C84.2914 101.54 85.5578 101.54 86.3388 100.759C87.1199 99.9782 87.1199 98.7118 86.3388 97.9308C85.5578 97.1497 84.2914 97.1497 83.5104 97.9308C82.7293 98.7118 82.7293 99.9782 83.5104 100.759ZM91.9957 106.416C91.2146 107.197 89.9483 107.197 89.1672 106.416C88.3862 105.635 88.3862 104.369 89.1672 103.588C89.9483 102.807 91.2146 102.807 91.9957 103.588C92.7767 104.369 92.7767 105.635 91.9957 106.416ZM94.8241 112.073C95.6052 112.854 96.8715 112.854 97.6525 112.073C98.4336 111.292 98.4336 110.026 97.6525 109.245C96.8715 108.463 95.6052 108.463 94.8241 109.245C94.0431 110.026 94.0431 111.292 94.8241 112.073ZM103.309 117.73C102.528 118.511 101.262 118.511 100.481 117.73C99.6999 116.949 99.6999 115.682 100.481 114.901C101.262 114.12 102.528 114.12 103.309 114.901C104.09 115.682 104.09 116.949 103.309 117.73ZM134.422 151.671C135.203 152.452 136.469 152.452 137.251 151.671C138.032 150.89 138.032 149.624 137.251 148.842C136.469 148.061 135.203 148.061 134.422 148.842C133.641 149.624 133.641 150.89 134.422 151.671ZM108.966 123.387C108.185 124.168 106.919 124.168 106.138 123.387C105.357 122.606 105.357 121.339 106.138 120.558C106.919 119.777 108.185 119.777 108.966 120.558C109.747 121.339 109.747 122.606 108.966 123.387ZM140.079 157.328C140.86 158.109 142.126 158.109 142.907 157.328C143.688 156.547 143.688 155.28 142.907 154.499C142.126 153.718 140.86 153.718 140.079 154.499C139.298 155.28 139.298 156.547 140.079 157.328ZM114.623 129.043C113.842 129.825 112.576 129.825 111.795 129.043C111.014 128.262 111.014 126.996 111.795 126.215C112.576 125.434 113.842 125.434 114.623 126.215C115.404 126.996 115.404 128.262 114.623 129.043ZM145.736 162.985C146.517 163.766 147.783 163.766 148.564 162.985C149.345 162.204 149.345 160.937 148.564 160.156C147.783 159.375 146.517 159.375 145.736 160.156C144.955 160.937 144.955 162.204 145.736 162.985ZM120.28 134.7C119.499 135.481 118.233 135.481 117.452 134.7C116.67 133.919 116.67 132.653 117.452 131.872C118.233 131.091 119.499 131.091 120.28 131.872C121.061 132.653 121.061 133.919 120.28 134.7ZM151.393 168.641C152.174 169.423 153.44 169.423 154.221 168.641C155.002 167.86 155.002 166.594 154.221 165.813C153.44 165.032 152.174 165.032 151.393 165.813C150.612 166.594 150.612 167.86 151.393 168.641ZM125.937 140.357C125.156 141.138 123.889 141.138 123.108 140.357C122.327 139.576 122.327 138.31 123.108 137.529C123.889 136.748 125.156 136.748 125.937 137.529C126.718 138.31 126.718 139.576 125.937 140.357ZM157.049 174.298C157.831 175.079 159.097 175.079 159.878 174.298C160.659 173.517 160.659 172.251 159.878 171.47C159.097 170.689 157.831 170.689 157.049 171.47C156.268 172.251 156.268 173.517 157.049 174.298ZM131.594 146.014C130.813 146.795 129.546 146.795 128.765 146.014C127.984 145.233 127.984 143.967 128.765 143.186C129.546 142.405 130.813 142.405 131.594 143.186C132.375 143.967 132.375 145.233 131.594 146.014ZM162.706 179.955C163.487 180.736 164.754 180.736 165.535 179.955C166.316 179.174 166.316 177.908 165.535 177.127C164.754 176.346 163.487 176.346 162.706 177.127C161.925 177.908 161.925 179.174 162.706 179.955Z" fill="#69C6FF"/>
<path d="M60.4264 109.426C54.8549 114.998 50.4353 121.612 47.42 128.892C44.4048 136.171 42.8528 143.974 42.8528 151.853C42.8528 159.732 44.4048 167.534 47.42 174.814C50.4353 182.093 54.8549 188.708 60.4264 194.279C65.9979 199.851 72.6123 204.27 79.8918 207.286C87.1713 210.301 94.9735 211.853 102.853 211.853C110.732 211.853 118.534 210.301 125.814 207.286C133.093 204.27 139.708 199.851 145.279 194.279L102.853 151.853L60.4264 109.426Z" fill="#BEBEBE"/>
<path d="M85.2109 41.4681C84.8798 38.2274 88.3542 35.9711 91.1801 37.5917L105.064 45.5537C107.659 47.0421 107.762 50.7488 105.253 52.3783L92.9953 60.3383C90.4861 61.9679 87.1415 60.3666 86.8375 57.3902L85.2109 41.4681Z" fill="#FFC72E"/>
<path d="M167.031 30.9324C169.458 28.7597 173.326 30.2443 173.676 33.483L175.395 49.3953C175.717 52.3699 172.778 54.6316 169.985 53.5594L156.34 48.3217C153.547 47.2495 152.877 43.6026 155.106 41.6071L167.031 30.9324Z" fill="#FFC72E"/>
<path d="M226.433 86.9251C229.64 87.5001 230.851 91.4618 228.514 93.7315L217.033 104.883C214.887 106.968 211.296 106.044 210.421 103.183L206.148 89.2066C205.273 86.3454 207.735 83.5718 210.679 84.0999L226.433 86.9251Z" fill="#FFC72E"/>
<path d="M223.028 167.863C224.549 170.743 222.172 174.137 218.945 173.693L203.09 171.512C200.126 171.104 198.642 167.706 200.358 165.255L208.741 153.283C210.457 150.832 214.158 151.064 215.555 153.709L223.028 167.863Z" fill="#FFC72E"/>
<circle cx="102.5" cy="187.5" r="8.5" fill="#D8D8D8"/>
<circle cx="73.5" cy="177.5" r="10.5" fill="#D8D8D8"/>
<circle cx="60" cy="143" r="5" fill="#D8D8D8"/>
<circle cx="80" cy="155" r="3" fill="#D8D8D8"/>
<circle cx="125" cy="196" r="3" fill="#D8D8D8"/>
<circle cx="86" cy="199" r="3" fill="#D8D8D8"/>
<circle cx="54" cy="161" r="3" fill="#D8D8D8"/>
<circle cx="60" cy="124" r="3" fill="#D8D8D8"/>
</svg>
